<?xml version="1.0" encoding="UTF-8" standalone="no"?>

<svg
   width="350"
   height="350"
   viewBox="0 0 92.604162 92.604169"
   version="1.1"
   id="svg5"
   xml:space="preserve"
   xmlns="http://www.w3.org/2000/svg"
   xmlns:svg="http://www.w3.org/2000/svg"><defs
     id="defs2" /><g
     id="layer1"><g
       id="g3148"
       transform="translate(-1.0789062,0.35276304)"><g
         id="g3261"
         transform="translate(-21.43125,-21.43125)"><rect
           style="fill:none;stroke:#000000;stroke-width:5.29167;stroke-linejoin:round;stroke-dasharray:none;stroke-opacity:1;paint-order:fill markers stroke"
           id="rect231"
           width="55.114307"
           height="70.618492"
           x="41.255085"
           y="32.071323"
           ry="5.4489975" /><path
           style="fill:none;stroke:#000000;stroke-width:5.29167;stroke-linecap:round;stroke-linejoin:miter;stroke-dasharray:none;stroke-opacity:1"
           d="M 51.463717,46.558366 H 84.516636"
           id="path1239" /><path
           style="fill:none;stroke:#000000;stroke-width:5.29167;stroke-linecap:round;stroke-linejoin:miter;stroke-dasharray:none;stroke-opacity:1"
           d="M 51.463717,59.52779 H 73.963599"
           id="path1241" /><path
           style="fill:none;stroke:#000000;stroke-width:5.29167;stroke-linecap:round;stroke-linejoin:miter;stroke-dasharray:none;stroke-opacity:1"
           d="M 69.622529,72.497213 H 85.29576"
           id="path1292" /><path
           style="fill:none;stroke:#000000;stroke-width:5.29167;stroke-linecap:round;stroke-linejoin:miter;stroke-dasharray:none;stroke-opacity:1"
           d="M 72.750892,85.466637 H 85.295758"
           id="path1294" /><g
           aria-label="E"
           id="text953"
           style="font-size:19.8438px;line-height:1;font-family:Lato;-inkscape-font-specification:'Lato, Normal';letter-spacing:4.80794px;word-spacing:0px;stroke-width:0.264584"><path
             d="m 49.190945,79.442543 q -0.198438,0 -0.337344,-0.138907 -0.138907,-0.138906 -0.138907,-0.337344 V 66.047978 q 0,-0.218281 0.138907,-0.357188 0.138906,-0.138907 0.337344,-0.138907 h 8.731272 q 0.218282,0 0.357189,0.138907 0.138906,0.138907 0.138906,0.357188 v 1.309691 q 0,0.198438 -0.138906,0.337345 -0.138907,0.138906 -0.357189,0.138906 h -6.52861 v 3.512353 h 6.092047 q 0.218281,0 0.357188,0.138906 0.138907,0.119063 0.138907,0.337345 v 1.230316 q 0,0.218281 -0.138907,0.357188 -0.138907,0.119063 -0.357188,0.119063 h -6.092047 v 3.631415 h 6.687361 q 0.218281,0 0.357188,0.138907 0.138907,0.138906 0.138907,0.357188 v 1.309691 q 0,0.198438 -0.138907,0.337344 -0.138907,0.138907 -0.357188,0.138907 z"
             style="font-weight:500;font-family:Rubik;-inkscape-font-specification:'Rubik Medium'"
             id="path3233" /></g><g
           aria-label="Y"
           id="text957"
           style="font-size:19.8438px;line-height:1.25;font-family:Lato;-inkscape-font-specification:'Lato, Normal';letter-spacing:2.64583px;word-spacing:0px;stroke-width:0.264583"><path
             d="m 61.202327,96.711464 q -0.198438,0 -0.337344,-0.138907 -0.138907,-0.138906 -0.138907,-0.337344 v -4.484699 l -4.683137,-8.294708 q -0.01984,-0.03969 -0.03969,-0.09922 -0.01984,-0.05953 -0.01984,-0.119063 0,-0.178594 0.119063,-0.297657 0.119062,-0.119063 0.277813,-0.119063 h 1.766098 q 0.238126,0 0.377032,0.119063 0.158751,0.119063 0.218282,0.257969 l 3.373446,5.774546 3.353602,-5.774546 q 0.07937,-0.138906 0.218282,-0.257969 0.15875,-0.119063 0.396876,-0.119063 h 1.746254 q 0.178594,0 0.297657,0.119063 0.119063,0.119063 0.119063,0.297657 0,0.05953 -0.01984,0.119063 0,0.05953 -0.03969,0.09922 l -4.683137,8.294708 v 4.484699 q 0,0.198438 -0.138907,0.337344 -0.138906,0.138907 -0.357188,0.138907 z"
             style="font-weight:500;font-family:Rubik;-inkscape-font-specification:'Rubik Medium'"
             id="path3230" /></g></g></g><text
       xml:space="preserve"
       style="font-style:normal;font-variant:normal;font-weight:normal;font-stretch:normal;font-size:9.87777px;line-height:1.25;font-family:Rubik;-inkscape-font-specification:Rubik;letter-spacing:2.64583px;word-spacing:0px;stroke-width:0.264583"
       x="54.997318"
       y="82.561424"
       id="text1350"><tspan
         style="font-style:normal;font-variant:normal;font-weight:normal;font-stretch:normal;font-family:Rubik;-inkscape-font-specification:Rubik;stroke-width:0.264583"
         x="54.997318"
         y="82.561424"
         id="tspan1352" /></text></g></svg>
