<?xml version="1.0" encoding="UTF-8" standalone="no"?>
<svg
   version="1.1"
   width="1000"
   height="1000"
   style="clip-rule:evenodd;fill-rule:evenodd;image-rendering:optimizeQuality;shape-rendering:geometricPrecision;text-rendering:geometricPrecision"
   id="svg2106"
   sodipodi:docname="20250807_1516_Eye Configuration Icon_simple_compose_01k22ap9bbev488wfqbqwh9y62.svg"
   inkscape:version="1.1.2 (0a00cf5339, 2022-02-04)"
   inkscape:export-filename="/mnt/Repositories/eyconf/logo.png"
   inkscape:export-xdpi="300"
   inkscape:export-ydpi="300"
   xmlns:inkscape="http://www.inkscape.org/namespaces/inkscape"
   xmlns:sodipodi="http://sodipodi.sourceforge.net/DTD/sodipodi-0.dtd"
   xmlns="http://www.w3.org/2000/svg"
   xmlns:svg="http://www.w3.org/2000/svg">
  <defs
     id="defs2110" />
  <sodipodi:namedview
     id="namedview2108"
     pagecolor="#505050"
     bordercolor="#ffffff"
     borderopacity="1"
     inkscape:pageshadow="0"
     inkscape:pageopacity="0"
     inkscape:pagecheckerboard="1"
     showgrid="false"
     fit-margin-top="0"
     fit-margin-left="0"
     fit-margin-right="0"
     fit-margin-bottom="0"
     inkscape:zoom="0.44805977"
     inkscape:cx="127.21517"
     inkscape:cy="357.09522"
     inkscape:window-width="2500"
     inkscape:window-height="1385"
     inkscape:window-x="60"
     inkscape:window-y="27"
     inkscape:window-maximized="1"
     inkscape:current-layer="svg2106" />
  <g
     id="g4852"
     transform="translate(181.49586,84.479763)">
    <g
       id="g368"
       transform="translate(-412.5,-95.459775)">
      <path
         style="opacity:0.979"
         fill="#000000"
         d="m 878.5,128.5 c 51.987,55.487 104.487,110.487 157.5,165 3.71,4.208 7.21,8.541 10.5,13 0.19,2.064 0.69,4.064 1.5,6 0.24,183.014 0.74,365.514 1.5,547.5 0.08,13.531 -0.42,27.031 -1.5,40.5 -2.13,6.282 -5.29,11.949 -9.5,17 -6.31,4.484 -13.31,7.317 -21,8.5 -191.333,0.667 -382.667,0.667 -574,0 -19.961,-3.633 -30.295,-15.633 -31,-36 0.933,-256.2 0.933,-510.033 0,-761.5 2.522,-18.687 13.022,-29.6873 31.5,-33 129.506,-0.1251 260.006,0.0416 391.5,0.5 5.375,-0.0377 10.375,1.2957 15,4 9.563,9.395 18.896,18.895 28,28.5 z m -423,758 h -6 v -414 c 0.301,-45.01 0.634,-89.51 1,-133.5 -0.667,-68 -1.333,-136 -2,-204 123.333,-0.5 246.666,-0.667 370,-0.5 0.307,53.696 0.307,108.196 0,163.5 0.604,7.159 1.104,14.326 1.5,21.5 2.574,6.907 7.408,11.407 14.5,13.5 58.999,0.5 117.999,0.667 177,0.5 0.35,182.732 1.02,367.065 2,553 z m 402,-723 c 23.34,23.007 46.007,46.674 68,71 7,6.333 13.667,13 20,20 3.305,3.641 6.638,7.308 10,11 9.942,9.205 19.442,18.872 28.5,29 0.281,2.405 -0.385,2.405 -2,0 -43.326,1.964 -84.659,2.631 -124,2 -0.5,-44.332 -0.667,-88.665 -0.5,-133 z"
         id="path366"
         sodipodi:nodetypes="ccccccccccccccccccccccccccccccccccc" />
    </g>
    <g
       id="g992"
       transform="translate(-416.38054,-95.459775)">
      <path
         style="opacity:0.982"
         fill="#000000"
         d="m 852.5,451.5 c 37.573,22.232 69.906,50.565 97,85 4.767,7.214 9.767,14.214 15,21 2.783,6.228 2.283,12.228 -1.5,18 -16.234,22.066 -33.734,43.066 -52.5,63 -13.05,11.053 -26.384,21.72 -40,32 -7.006,3.5 -13.673,7.5 -20,12 -2.319,0.492 -4.319,1.492 -6,3 -46.336,21.684 -94.336,29.184 -144,22.5 -48.837,-7.093 -91.837,-26.593 -129,-58.5 -21.503,-18.831 -40.503,-39.831 -57,-63 -4.842,-6.182 -8.508,-13.015 -11,-20.5 0.712,-4.911 2.379,-9.411 5,-13.5 3.388,-3.097 6.055,-6.764 8,-11 3.484,-3.634 6.484,-7.634 9,-12 19.078,-22.079 40.078,-42.079 63,-60 9.904,-6.057 19.237,-12.057 28,-18 54.377,-29.887 112.377,-38.053 174,-24.5 21.967,6.02 42.634,14.187 62,24.5 z m 58,99 c 4.845,4.683 9.178,9.85 13,15.5 -3.152,4.979 -6.819,9.479 -11,13.5 -13,17 -28,32 -45,45 -3.127,3.398 -6.793,6.065 -11,8 -6.754,5.555 -14.087,10.388 -22,14.5 -7.016,4.011 -14.35,7.178 -22,9.5 -7.863,3.842 -16.197,6.509 -25,8 -77.215,18.034 -144.548,0.201 -202,-53.5 -14.397,-13.798 -27.397,-28.798 -39,-45 9.08,-12.914 19.413,-24.748 31,-35.5 33.095,-35.225 73.429,-58.058 121,-68.5 55,-9.008 105.167,1.825 150.5,32.5 23.246,15.75 43.746,34.417 61.5,56 z"
         id="path990"
         sodipodi:nodetypes="ccccccccccccccccccccccccccccccccc" />
    </g>
    <g
       id="g1080"
       transform="translate(-415.79064,-95.459775)">
      <path
         style="opacity:0.983"
         fill="#000000"
         d="m 673.5,605.5 c -12.545,-25.227 -12.879,-50.56 -1,-76 21.806,-33.548 51.806,-43.714 90,-30.5 31.937,17.371 45.77,44.205 41.5,80.5 -9.176,37.336 -33.009,57.003 -71.5,59 -25.531,-0.923 -45.198,-11.923 -59,-33 z m 79,-13 c 0.739,0.131 1.406,-0.036 2,-0.5 5.951,-5.474 9.784,-12.64 11.5,-21.5 0.515,-22.953 -10.318,-35.619 -32.5,-38 -17.705,1.872 -28.205,11.539 -31.5,29 0.039,26.372 13.205,38.539 39.5,36.5 4.276,-0.805 7.943,-2.638 11,-5.5 z"
         id="path1078" />
    </g>
  </g>
</svg>
